<?xml version="1.0" encoding="utf-8"?>
<!-- Generator: Adobe Illustrator 28.3.0, SVG Export Plug-In . SVG Version: 6.00 Build 0)  -->
<svg version="1.1" id="Arte" xmlns="http://www.w3.org/2000/svg" xmlns:xlink="http://www.w3.org/1999/xlink" x="0px" y="0px"
	 viewBox="0 0 26 22" style="enable-background:new 0 0 26 22;" xml:space="preserve">
<g>
	<path d="M23,22H3c-1.7,0-3-1.3-3-3V3c0-1.7,1.3-3,3-3h20c1.7,0,3,1.3,3,3v16C26,20.7,24.7,22,23,22z M3,2C2.4,2,2,2.4,2,3v16
		c0,0.6,0.4,1,1,1h20c0.6,0,1-0.4,1-1V3c0-0.6-0.4-1-1-1H3z"/>
	<path d="M18,10c-1.7,0-3-1.3-3-3s1.3-3,3-3s3,1.3,3,3S19.7,10,18,10z M18,6c-0.6,0-1,0.4-1,1s0.4,1,1,1s1-0.4,1-1S18.6,6,18,6z"/>
	<path d="M23,22c-0.3,0-0.6-0.2-0.8-0.5L17.8,15c-0.3-0.5-0.9-0.6-1.4-0.3c-0.1,0.1-0.2,0.2-0.3,0.3l-0.3,0.5
		c-0.3,0.4-1,0.5-1.4,0.2c-0.4-0.3-0.5-0.8-0.3-1.3l0.3-0.5c0.9-1.4,2.8-1.8,4.2-0.8c0.3,0.2,0.6,0.5,0.8,0.8l4.3,6.5
		c0.3,0.5,0.2,1.1-0.3,1.4C23.4,21.9,23.2,22,23,22z"/>
	<path d="M3,22c-0.2,0-0.4-0.1-0.5-0.2c-0.5-0.3-0.6-0.9-0.3-1.4l6.2-9.6c0.5-0.8,1.5-1.4,2.5-1.4l0,0c1,0,1.9,0.5,2.5,1.3l6.4,9.6
		c0.3,0.5,0.1,1.1-0.4,1.4c-0.4,0.2-0.9,0.1-1.3-0.3l-6.4-9.6c-0.2-0.3-0.5-0.4-0.8-0.5l0,0c-0.3,0-0.6,0.2-0.8,0.5l-6.2,9.6
		C3.7,21.8,3.3,22,3,22z"/>
</g>
</svg>
